<svg width="30" height="30" viewBox="0 0 30 30" fill="none" xmlns="http://www.w3.org/2000/svg">
<path d="M25.6066 4.39336C22.7735 1.56029 19.0066 0 15 0C10.9934 0 7.22654 1.56029 4.39336 4.39336C1.56029 7.22654 0 10.9934 0 15C0 19.0066 1.56029 22.7735 4.39336 25.6066C7.22654 28.4397 10.9934 30 15 30C19.0066 30 22.7735 28.4397 25.6066 25.6066C28.4397 22.7735 30 19.0066 30 15C30 10.9934 28.4397 7.22654 25.6066 4.39336ZM24.9851 24.9851C22.9876 26.9827 20.4971 28.3079 17.7879 28.8475V19.197H19.7999C20.2179 19.197 20.5806 18.9138 20.682 18.5084L21.3865 15.6902C21.4549 15.4167 21.3946 15.1324 21.2211 14.9102C21.0476 14.688 20.7864 14.5605 20.5045 14.5605H17.3486C17.1059 14.5605 16.9091 14.7573 16.9091 15C16.9091 15.2427 17.1059 15.4395 17.3486 15.4395H20.5045C20.5089 15.4395 20.5192 15.4395 20.5284 15.4511C20.5375 15.4627 20.5349 15.4728 20.5339 15.4771L19.8294 18.2953C19.826 18.3087 19.8139 18.3182 19.8 18.3182H17.3486C17.1059 18.3182 16.9091 18.5149 16.9091 18.7576V28.993C16.2813 29.0772 15.6441 29.1211 15 29.1211C11.2281 29.1211 7.68199 27.6523 5.01486 24.9851C2.34773 22.318 0.878906 18.7719 0.878906 15C0.878906 11.2281 2.34773 7.68199 5.01486 5.01486C7.68199 2.34773 11.2281 0.878906 15 0.878906C18.7719 0.878906 22.318 2.34773 24.9851 5.01486C27.6523 7.68199 29.1211 11.2281 29.1211 15C29.1211 18.7719 27.6523 22.318 24.9851 24.9851Z" fill="white"/>
<path d="M20.6363 5.63638H17.8181C14.7269 5.63638 12.212 8.15129 12.212 11.2425V14.5606H9.36361C8.86228 14.5606 8.45447 14.9684 8.45447 15.4698V18.2879C8.45447 18.7893 8.86228 19.1971 9.36361 19.1971H12.212V27.2122C12.212 27.4549 12.4088 27.6516 12.6515 27.6516C12.8942 27.6516 13.0909 27.4549 13.0909 27.2122V18.7576C13.0909 18.5149 12.8942 18.3182 12.6515 18.3182H9.36361C9.34691 18.3182 9.33337 18.3046 9.33337 18.2879V15.4698C9.33337 15.4531 9.34691 15.4395 9.36361 15.4395H12.6515C12.8942 15.4395 13.0909 15.2428 13.0909 15.0001V11.2425C13.0909 8.63591 15.2116 6.51529 17.8181 6.51529H20.6363C20.653 6.51529 20.6665 6.52882 20.6665 6.54552V9.36371C20.6665 9.38041 20.653 9.39394 20.6363 9.39394H18.7575C17.7382 9.39394 16.909 10.2232 16.909 11.2425V13.1212C16.909 13.3639 17.1058 13.5607 17.3485 13.5607C17.5912 13.5607 17.7879 13.3639 17.7879 13.1212V11.2425C17.7879 10.7078 18.2229 10.2728 18.7575 10.2728H20.6363C21.1376 10.2728 21.5454 9.86504 21.5454 9.36371V6.54552C21.5454 6.04425 21.1376 5.63638 20.6363 5.63638Z" fill="white"/>
</svg>
