<svg width="30" height="30" viewBox="0 0 30 30" fill="none" xmlns="http://www.w3.org/2000/svg">
<path d="M25.6066 4.39342C22.7735 1.56023 19.0066 0 15 0C10.9934 0 7.22654 1.56023 4.39342 4.39342C1.56023 7.22654 0 10.9934 0 15C0 19.0066 1.56023 22.7735 4.39342 25.6066C7.22654 28.4398 10.9934 30 15 30C19.0066 30 22.7735 28.4398 25.6066 25.6066C28.4397 22.7734 30 19.0066 30 15C30 10.9934 28.4398 7.22654 25.6066 4.39342ZM15 29.0527C7.25133 29.0527 0.947344 22.7487 0.947344 15C0.947344 7.25133 7.25133 0.947344 15 0.947344C22.7487 0.947344 29.0527 7.25133 29.0527 15C29.0527 22.7487 22.7487 29.0527 15 29.0527Z" fill="white"/>
<path d="M20.3815 5.68427H9.61842C7.44905 5.68427 5.6842 7.44917 5.6842 9.61848V20.3817C5.6842 22.5509 7.44911 24.3158 9.61842 24.3158H20.3816C22.5509 24.3158 24.3158 22.5509 24.3158 20.3816V9.61848C24.3157 7.44911 22.5509 5.68427 20.3815 5.68427ZM23.3684 20.3816C23.3684 22.0285 22.0285 23.3684 20.3815 23.3684H9.61842C7.97147 23.3684 6.63155 22.0285 6.63155 20.3816V9.61848C6.63155 7.97153 7.97147 6.63161 9.61842 6.63161H20.3816C22.0285 6.63161 23.3684 7.97153 23.3684 9.61848V20.3816H23.3684Z" fill="white"/>
<path d="M19.8868 14.7199C19.7467 12.2277 17.7187 10.2228 15.2252 10.1104C12.3478 9.98067 9.97902 12.3506 10.1104 15.2283C10.2244 17.7221 12.231 19.7491 14.7234 19.8871C15.7752 19.9454 16.7602 19.6687 17.583 19.1551C17.8393 18.995 17.881 18.6386 17.6674 18.425C17.6651 18.4228 17.6629 18.4205 17.6607 18.4183C17.505 18.2626 17.2635 18.2391 17.0764 18.3553C16.4617 18.7373 15.7351 18.9554 14.9578 18.9472C12.7632 18.9241 10.9924 17.0814 11.0542 14.8875C11.1164 12.6796 13.0004 10.9195 15.2529 11.0606C17.1938 11.1823 18.7738 12.73 18.9337 14.6682C18.9988 15.4577 18.829 16.2037 18.4878 16.8453C18.3901 17.0291 18.4202 17.2544 18.5673 17.4016C18.5697 17.404 18.5722 17.4064 18.5746 17.4088C18.7957 17.6299 19.1696 17.5779 19.3173 17.3024C19.7264 16.5392 19.9395 15.6561 19.8868 14.7199Z" fill="white"/>
<path d="M20.0526 10.579C20.7502 10.579 21.3158 10.0134 21.3158 9.31582C21.3158 8.6182 20.7502 8.05266 20.0526 8.05266C19.355 8.05266 18.7894 8.6182 18.7894 9.31582C18.7894 10.0134 19.355 10.579 20.0526 10.579Z" fill="white"/>
</svg>
