<svg width="40" height="40" viewBox="0 0 40 40" fill="none" xmlns="http://www.w3.org/2000/svg">
<path d="M34.1329 5.86303C30.3559 2.08603 25.3364 0.00415039 19.9959 0.00415039C14.6554 0.00415039 9.63588 2.08603 5.85888 5.86303C2.08188 9.64003 0 14.6596 0 20C0 25.3405 2.08188 30.36 5.85888 34.137C9.63588 37.914 14.6554 39.9959 19.9959 39.9959C23.0981 39.9959 25.9288 39.4199 28.1753 38.3419C30.3065 37.3133 31.8535 35.8404 32.5365 34.2029C33.3512 32.2362 32.8904 30.1872 31.2775 28.5744L31.2199 28.5168C31.2446 28.4839 31.2775 28.4592 31.3022 28.4345C32.4542 27.2249 32.4542 25.6367 31.2857 24.4683L28.4386 21.6211C27.879 21.0451 27.2043 20.7324 26.4884 20.7324C25.7725 20.7324 25.0895 21.0369 24.5135 21.6129L23.0323 23.094C22.9582 23.0529 22.8924 23.02 22.8183 22.9871C22.6373 22.8966 22.4727 22.8143 22.3329 22.7238C20.827 21.7692 19.461 20.5184 18.1526 18.9138C17.5766 18.1897 17.1816 17.5725 16.8854 16.9636C17.2557 16.618 17.6013 16.2642 17.9387 15.9186C18.0786 15.7705 18.2267 15.6306 18.3748 15.4824C19.5844 14.2728 19.5844 12.7094 18.3748 11.4997L16.9677 10.0926C16.8031 9.92803 16.6468 9.77169 16.4904 9.60711C16.1777 9.28619 15.8568 8.95704 15.5112 8.63612C14.9517 8.08479 14.2851 7.79678 13.5775 7.79678C12.8698 7.79678 12.195 8.08479 11.619 8.63612C11.6108 8.64435 11.6108 8.64435 11.6026 8.65258L9.83337 10.4218C9.12569 11.1294 8.71426 12.0017 8.63197 13.0056C8.50854 14.5691 8.96112 16.0173 9.31496 16.9636C10.1625 19.2512 11.4297 21.3742 13.3141 23.6454C15.6017 26.3773 18.3584 28.5415 21.51 30.0638C22.7196 30.6398 24.3407 31.3146 26.1675 31.438C26.2827 31.4462 26.3979 31.4462 26.5131 31.4462C27.7885 31.4462 28.8665 30.9854 29.7058 30.072C29.7141 30.0638 29.7305 30.0473 29.7387 30.0391C29.7634 30.0062 29.7963 29.9733 29.8293 29.9404L29.8786 29.9897C30.9319 31.043 31.2199 32.2444 30.7097 33.4705C29.7634 35.717 26.0852 38.021 19.9959 38.021C10.0555 38.021 1.9749 29.9404 1.9749 20C1.9749 10.0597 10.0555 1.97905 19.9959 1.97905C29.9362 1.97905 38.0169 10.0597 38.0169 20C38.0169 21.6376 37.7947 23.2504 37.3668 24.8056C37.2187 25.3323 37.5314 25.8754 38.058 26.0235C38.5847 26.1716 39.1278 25.8589 39.2759 25.3323C39.7531 23.6042 40 21.8104 40 20C39.9918 14.6596 37.9099 9.64003 34.1329 5.86303ZM28.2411 28.7307C27.7721 29.2327 27.2454 29.4549 26.5131 29.4549C26.439 29.4549 26.3649 29.4549 26.2909 29.4467C24.8097 29.3479 23.4108 28.7637 22.3658 28.2617C19.4775 26.8628 16.943 24.8797 14.8365 22.3617C13.1002 20.2716 11.9399 18.3378 11.1664 16.2642C10.7056 15.0134 10.5328 14.0589 10.5986 13.1537C10.648 12.6188 10.8455 12.1827 11.2323 11.8042L13.0014 10.0432C13.1413 9.91158 13.3553 9.75523 13.5857 9.75523C13.8161 9.75523 14.0136 9.90335 14.137 10.035C14.1452 10.0432 14.1535 10.0515 14.1617 10.0597C14.4744 10.3477 14.7706 10.6522 15.0833 10.9731C15.2479 11.1377 15.4125 11.3105 15.577 11.475L16.9842 12.8822C17.4203 13.3183 17.4203 13.6392 16.9842 14.0753C16.836 14.2234 16.6879 14.3716 16.5398 14.5197C16.1037 14.9558 15.7005 15.3755 15.2561 15.7705C15.2397 15.7787 15.2314 15.7951 15.215 15.8116C14.5978 16.4288 14.8118 17.0706 14.8776 17.2845C14.8858 17.3092 14.8941 17.3257 14.9023 17.3504C15.2808 18.2638 15.8074 19.1196 16.6139 20.1399L16.6221 20.1482C18.0704 21.9338 19.5927 23.3162 21.2796 24.386C21.5017 24.5259 21.7239 24.6411 21.9379 24.748C22.1189 24.8385 22.2835 24.9208 22.4234 25.0114C22.4481 25.0278 22.481 25.0443 22.5139 25.0607C22.7278 25.1677 22.9418 25.2171 23.1557 25.2171C23.5178 25.2171 23.8552 25.0689 24.1432 24.7727L25.9124 23.0035C26.0523 22.8636 26.258 22.6991 26.4884 22.6991C26.7023 22.6991 26.8998 22.8554 27.0232 22.9871C27.0315 22.9953 27.0315 22.9953 27.0397 23.0035L29.8869 25.8507C30.2901 26.2539 30.2901 26.6242 29.8704 27.0603L29.8622 27.0685C29.6729 27.2743 29.4672 27.4717 29.245 27.6857C28.9159 28.0066 28.5703 28.344 28.2411 28.7307Z" fill="white"/>
</svg>
